<?xml version="1.0" encoding="utf-8"?>
<!-- Generator: Adobe Illustrator 26.3.1, SVG Export Plug-In . SVG Version: 6.00 Build 0)  -->
<svg version="1.1" id="Layer_1" xmlns="http://www.w3.org/2000/svg" xmlns:xlink="http://www.w3.org/1999/xlink" x="0px" y="0px"
	 viewBox="0 0 104.1 44.9" enable-background="new 0 0 104.1 44.9" xml:space="preserve">
<head></head>
<head></head>
<path fill="#49BEB7" d="M17.7,26.7h6.4c-0.5,4.6-3.7,6.3-7.5,6.3c-5.6,0-9.1-3.5-9.1-10.5c0-7,3.5-10.5,9.1-10.5
	c4,0,6.2,1.7,8.1,4.6l5.5-3.7c-2.1-3.7-5.7-6.4-11.2-7.1V3h-5.9v3C5.3,7.3,0,13,0,22.5c0,9.5,5.3,15.1,13,16.4v3H19v-2.8
	c8-0.9,12.5-6.2,12.5-14v-4.4H17.7V26.7z"/>
<path fill="#49BEB7" d="M59.1,21.6c2.5-1.3,3.7-3.5,3.7-6.5c0-5.7-4.4-8.8-11-8.8H35.8v32.4h16.1c7.8,0,12.3-3.5,12.3-9.4
	C64.1,25.3,62.2,23,59.1,21.6z M43.1,12.5h8.9c2.3,0,3.8,1.2,3.8,3.3c0,2.3-1.8,3.6-3.8,3.6h-8.9V12.5z M51.8,32.5h-8.7v-7.6h8.1
	c3.5,0,5.7,1,5.7,3.9C57,31.3,55.3,32.5,51.8,32.5z"/>
<path fill="#49BEB7" d="M96.7,6.4L86.5,26.8L76.2,6.4h-7.7v32.4H76V21.8l8.7,16.9h3.2L96.5,22v16.7h7.6V6.4H96.7z"/>
<rect x="12.6" fill="#49BEB7" width="7.4" height="6.1"/>
<rect x="12.6" y="38.8" fill="#49BEB7" width="7.4" height="6.1"/>
</svg>
