<?xml version="1.0" encoding="utf-8"?>
<!-- Generator: Adobe Illustrator 26.0.1, SVG Export Plug-In . SVG Version: 6.00 Build 0)  -->
<svg version="1.1" id="Layer_1" xmlns="http://www.w3.org/2000/svg" xmlns:xlink="http://www.w3.org/1999/xlink" x="0px" y="0px"
	 viewBox="0 0 8.38 8.24" style="enable-background:new 0 0 8.38 8.24;" xml:space="preserve">
<style type="text/css">
	.st0{fill:url(#Path_2631_00000173140348019291950410000009771661248986643900_);}
	.st1{fill:url(#Path_2632_00000163766913141407422540000001807277811343857852_);}
	.st2{fill:#FFFFFF;}
	.st3{fill:url(#Path_2634_00000008871068332232616410000016982756782083961020_);}
</style>
<g id="Group_183_00000079461570358304747310000009322037027733881258_" transform="translate(37 10.764)">
	
		<radialGradient id="Path_2631_00000111151014401368622250000016845990444089277326_" cx="304.7174" cy="-33.6526" r="0.0846" gradientTransform="matrix(49.4451 0 0 49.5743 -15099.5947 1661.5873)" gradientUnits="userSpaceOnUse">
		<stop  offset="0" style="stop-color:#0457A7"/>
		<stop  offset="0.421" style="stop-color:#022F5A"/>
		<stop  offset="1" style="stop-color:#022F5A;stop-opacity:0"/>
	</radialGradient>
	
		<path id="Path_2631_00000062175162892765053550000015311444243799834517_" style="fill:url(#Path_2631_00000111151014401368622250000016845990444089277326_);" d="
		M-37-6.72c0-1.51,0.81-2.9,2.12-3.65c0.63-0.36,1.34-0.55,2.07-0.55c2.32,0,4.19,1.88,4.19,4.2l0,0c0,0.1,0,0.2-0.01,0.3
		c-0.16,2.31-2.15,4.05-4.46,3.89C-35.3-2.68-37.01-4.51-37-6.72L-37-6.72z"/>
	
		<radialGradient id="Path_2632_00000035525506082703243110000003794226250385301140_" cx="321.8525" cy="-7.7012" r="0.0845" gradientTransform="matrix(-38.196 0 0 -38.2943 12260.6787 -301.6269)" gradientUnits="userSpaceOnUse">
		<stop  offset="0" style="stop-color:#3578B8"/>
		<stop  offset="0.469" style="stop-color:#1A3B5A"/>
		<stop  offset="1" style="stop-color:#1A3B5A;stop-opacity:0"/>
	</radialGradient>
	
		<path id="Path_2632_00000181081510400329337100000013672206798579898018_" style="fill:url(#Path_2632_00000035525506082703243110000003794226250385301140_);" d="
		M-36.05-6.72c0-1.17,0.62-2.24,1.64-2.82c0.49-0.28,1.04-0.43,1.6-0.43c1.79,0,3.24,1.45,3.24,3.24l0,0c0,0.08,0,0.15-0.01,0.23
		c-0.12,1.78-1.66,3.13-3.45,3.01C-34.74-3.6-36.06-5.02-36.05-6.72L-36.05-6.72z"/>
	<path id="Path_2633_00000109029139910212732160000010974664701992220291_" class="st2" d="M-34.88-6.68c0-0.73,0.39-1.4,1.02-1.75
		c0.3-0.17,0.65-0.27,1-0.26c1.11,0,2.02,0.9,2.02,2.02l0,0c0,0.05,0,0.1-0.01,0.14c-0.08,1.11-1.04,1.95-2.15,1.87
		C-34.07-4.74-34.89-5.62-34.88-6.68L-34.88-6.68z"/>
	
		<radialGradient id="Path_2634_00000082327524234162187820000000306550514543537086_" cx="327.8703" cy="2.2057" r="0.0981" gradientTransform="matrix(-23.2411 0 0 -23.316 7586.8315 45.8019)" gradientUnits="userSpaceOnUse">
		<stop  offset="0" style="stop-color:#FFF2F8"/>
		<stop  offset="0.13" style="stop-color:#F0F1F3"/>
		<stop  offset="0.376" style="stop-color:#CBF0E8"/>
		<stop  offset="0.709" style="stop-color:#90EED7"/>
		<stop  offset="1" style="stop-color:#57ECC6"/>
	</radialGradient>
	
		<path id="Path_2634_00000102524567252585923280000007310197216858810246_" style="fill:url(#Path_2634_00000082327524234162187820000000306550514543537086_);" d="
		M-34.79-6.72c0-0.71,0.38-1.36,1-1.72c0.3-0.17,0.63-0.26,0.97-0.26c1.09,0,1.97,0.89,1.97,1.97l0,0c0,0.05,0,0.09-0.01,0.14
		c-0.07,1.08-1.01,1.9-2.09,1.83C-33.99-4.82-34.79-5.68-34.79-6.72L-34.79-6.72z"/>
</g>
</svg>
