<svg id="Layer_1" data-name="Layer 1" xmlns="http://www.w3.org/2000/svg" xmlns:xlink="http://www.w3.org/1999/xlink" viewBox="0 0 100 100"><defs><style>.cls-1{fill:none;}.cls-2{clip-path:url(#clip-path);}.cls-3{fill:#381537;}.cls-4{fill:#4a1d47;}.cls-5{fill:#5b255a;}.cls-6{fill:#824b5d;}.cls-7{fill:#aa5779;}.cls-8{fill:#753e52;}</style><clipPath id="clip-path"><polygon class="cls-1" points="69.41 7.81 23.53 34.7 23.53 60.29 15.59 81.47 15.59 100 50.88 82.35 65 58.53 76.47 59.41 84.41 17.62 78.24 0 69.41 7.81"/></clipPath></defs><g class="cls-2"><path class="cls-3" d="M12.25,106.28C11.47,105.1,33,77.77,33,77.77L46,75.69,56.18,55.3l6.27-7.45,4.71,17.64L57.75,92.55S30.29,111,27.94,111,12.25,106.28,12.25,106.28Z"/><polygon class="cls-4" points="62.45 47.85 67.21 69.81 79.41 69.81 74.41 36.37 68.53 47.4 62.45 47.85"/><polygon class="cls-5" points="71.86 41.57 74.41 36.37 71.86 28.73 80.3 22.55 80.3 14.31 84.41 17.62 76.47 59.41 71.86 41.57"/><polygon class="cls-3" points="79.71 50.35 81.22 32.5 80.3 22.55 71.86 28.73 79.71 50.35"/><polygon class="cls-6" points="15.59 100 33.04 77.77 45.98 75.69 56.18 55.3 62.45 47.85 68.53 47.4 74.41 36.37 71.86 28.73 80.3 22.55 80.3 14.31 84.41 17.62 78.24 0 47.74 8.23 -1.08 35.1 -2.26 81.18 3.62 100.79 15.59 100"/><path class="cls-7" d="M3.12,101.51-2.95,81.27v-.11l1.18-46.47L47.57,7.57l31.1-8.4,7.19,20.49L81,15.74V22.9L72.67,29l2.49,7.46L69,48.06l-6.17.45-6,7.17L46.44,76.31l-13,2.09L15.94,100.66ZM-1.57,81.09l5.69,19,11.11-.73L32.66,77.13l12.86-2.06L55.65,54.86l6.46-7.68,6-.43,5.57-10.44-2.62-7.84,8.56-6.27V12.88L83,15.58,77.8.83,48,8.88-.41,35.51Z"/><polygon class="cls-8" points="24.7 36.23 67.72 10.93 72.43 3.87 81.25 -12.01 18.75 23.58 24.19 33.43 24.7 36.23"/><polygon class="cls-8" points="23.53 60.29 30.29 50 32.2 40.58 24.38 31.21 15.59 39.61 23.53 60.29"/><polygon class="cls-8" points="24.82 58.32 24.82 62.26 15 83.73 16.91 54.61 18.53 50.7 24.82 55.05 24.82 58.32"/></g></svg>