<svg id="Layer_1" data-name="Layer 1" xmlns="http://www.w3.org/2000/svg" xmlns:xlink="http://www.w3.org/1999/xlink" viewBox="0 0 100 100"><defs><style>.cls-1{fill:none;}.cls-2{fill:#4a1d47;}.cls-3{clip-path:url(#clip-path);}.cls-4{fill:#5b255a;}.cls-5{fill:#381537;}.cls-6{fill:#824b5d;}.cls-7{fill:#aa5779;}</style><clipPath id="clip-path"><path class="cls-1" d="M75.67,64.74C64.19,68.49,60.27,81.26,59,87.79c-.45,2.33-1.91,12-4.28,12.21L23.06,95.63c-2.27.18-4.44-2.16-5.34-4.26L6,64a5.32,5.32,0,0,1,.3-4.77L12,49.43a5.08,5.08,0,0,0,.56-1.34L24.45,1.85A2.46,2.46,0,0,1,27.37.06l18,4.4A2.85,2.85,0,0,0,47,4.38L58.92.25a2.9,2.9,0,0,1,1.49-.1L88,5.68a2.85,2.85,0,0,1,2.26,2.4L94.45,37.8a2.82,2.82,0,0,1-.49,2L77.16,63.66A2.9,2.9,0,0,1,75.67,64.74Z"/></clipPath></defs><path class="cls-2" d="M75.67,64.74C64.19,68.49,60.27,81.26,59,87.79c-.45,2.33-1.91,12-4.28,12.21L23,94.57a5.29,5.29,0,0,1-5.31-3.2L6,64a5.32,5.32,0,0,1,.3-4.77L12,49.43a5.08,5.08,0,0,0,.56-1.34L24.45,1.85A2.46,2.46,0,0,1,27.37.06l18,4.4A2.85,2.85,0,0,0,47,4.38L58.92.25a2.9,2.9,0,0,1,1.49-.1L88,5.68a2.85,2.85,0,0,1,2.26,2.4L94.45,37.8a2.82,2.82,0,0,1-.49,2L77.16,63.66A2.9,2.9,0,0,1,75.67,64.74Z"/><g class="cls-3"><polygon class="cls-4" points="66.49 26.38 105.84 55.74 99.33 29.02 80.27 14.72 66.49 26.38"/><path class="cls-5" d="M29.42,55.31l16.27,41.8L25.31,94.29a4.76,4.76,0,0,1-3.8-3L11.67,66.17l-10.19-21-6.09,56.41L28.23,118l15.36-15.36s19.06-.8,19.06-1.59-5-29.4-5.29-30.19S39.88,50.74,39.88,50.74Z"/><polygon class="cls-4" points="51.93 66.89 57.05 94.88 82.43 70.87 82.43 66.14 69.01 58.86 51.93 66.89"/><polygon class="cls-6" points="7.3 50.74 8.33 65.92 15.51 75.24 15.77 79.53 18.63 82.7 18.5 74.6 32.11 65.04 52.11 67.77 69.19 59.74 53.65 44.21 80.49 36.44 86.14 18.43 92.49 0 33.52 -3.11 8.1 32.56 7.3 50.74"/><path class="cls-7" d="M7.3,50.74S8.39,66,8.36,65.9c.05,0,7.25,9.28,7.25,9.34l.3,4.28,0-.09,2.89,3.14-.32.13-.22-8.09v-.14l.12-.08,13.47-9.76.15-.11.21,0,20,2.44-.44.07,17-8.27-.3,1.72C63.7,55.93,55.78,48.17,51.1,43.58c7.72-2.32,21.22-6.31,29-8.57l-1,1C82.68,24.09,87,11.21,91.22-.44l1.2,1.78C75.41.22,50.76-1.38,33.49-2.58L34-2.8,21,14.85S8.08,32.68,8.15,32.56L7.3,50.74Zm0,0S8,32.55,8,32.54L20.63,14.59l12.46-18,.16-.23c18.22.82,43.09,1.5,61.07,2.39-3.9,11.47-9.1,27.16-12.66,38.91l-.76.21L67.47,41.71,54,45.49l.57-2.23C58.42,47.17,66.14,55.06,69.94,59L71,60.09l-1.37.62-17.2,7.78-.22.1-.22,0-20-3,.36-.09L18.65,74.82l.11-.22,0,8.09v.49l-.32-.36-2.84-3.19,0,0v0l-.22-4.29c.11.31-7.11-9.38-7.11-9.3s-1-15.19-1-15.21Z"/><polygon class="cls-7" points="47.91 -14.94 13.66 21.79 12.25 -7.88 24.96 -14.94 44.03 -14.94 47.91 -14.94"/></g></svg>