<svg id="Layer_1" data-name="Layer 1" xmlns="http://www.w3.org/2000/svg" xmlns:xlink="http://www.w3.org/1999/xlink" viewBox="0 0 100 100"><defs><style>.cls-1{fill:none;}.cls-2{fill:#4a1d47;}.cls-3{clip-path:url(#clip-path);}.cls-4{fill:#5b255a;}.cls-5{fill:#381537;}.cls-6{fill:#824b5d;}.cls-7{fill:#aa5779;}.cls-8{fill:#703e50;opacity:0.5;}</style><clipPath id="clip-path"><path class="cls-1" d="M48,4.85c-2.83,0-33.25,22.54-37.06,25.38a1.75,1.75,0,0,0-.58.74L.14,55.29a1.81,1.81,0,0,0,.49,2.06L46.82,96.89a1.8,1.8,0,0,0,1.78.33L70,89.44a1.8,1.8,0,0,0,1.13-1.24L77,65.61a1.8,1.8,0,0,1,.66-1l17-12.73a1.81,1.81,0,0,0,.69-1.79l-9.19-46A1.8,1.8,0,0,0,83.9,2.75l-6.6,2a1.88,1.88,0,0,1-.52.08Z"/></clipPath></defs><path class="cls-2" d="M48,4.85c-2.83,0-33.25,22.54-37.06,25.38a1.75,1.75,0,0,0-.58.74L.14,55.29a1.81,1.81,0,0,0,.49,2.06L46.82,96.89a1.8,1.8,0,0,0,1.78.33L70,89.44a1.8,1.8,0,0,0,1.13-1.24L77,65.61a1.8,1.8,0,0,1,.66-1l17-12.73a1.81,1.81,0,0,0,.69-1.79l-9.19-46A1.8,1.8,0,0,0,83.9,2.75l-6.6,2a1.88,1.88,0,0,1-.52.08Z"/><g class="cls-3"><polygon class="cls-4" points="49.36 43 38.6 58.01 61.1 79.14 50.98 63.59 52.8 51.96 58.12 50 49.36 43"/><polygon class="cls-5" points="42.83 37.77 88.14 74.01 99.61 56.49 76.09 26.89 42.83 37.77"/><polygon class="cls-5" points="9.3 59.11 51.28 106.94 82.07 98.21 31.65 51.96 9.3 59.11"/><polygon class="cls-6" points="1.21 51.51 8.7 52.87 10.21 58.01 38.6 58.01 48.91 42 80.28 32.33 85.11 9.07 89.95 0.61 73.33 -12.98 9.6 10.58 -3.39 36.26 1.21 51.51"/><path class="cls-7" d="M39.18,59.06H9.41L7.86,53.79.38,52.43l-4.9-16.27L8.85,9.74,73.54-14.18,91.31.36,86.12,9.45,81.19,33.16l-31.6,9.73ZM11,57H38L48.23,41.1l31.14-9.6L84.11,8.69,88.59.87,73.13-11.78,10.36,11.43-2.25,36.36,2,50.59,9.53,52Z"/></g><polygon class="cls-8" points="19.57 32.03 13.23 46.23 17.3 46.23 17.3 49.28 33.61 49.28 41.77 36.03 72.05 27.59 76.42 10.7 49.92 10.7 19.57 32.03"/><polygon class="cls-5" points="84.28 75.92 90.35 67.72 100 73.02 99.32 82.68 95.41 81.91 90.74 84.93 84.28 75.92"/><polygon class="cls-4" points="87.82 77.88 92.14 76.48 93.78 73.87 98.49 73.69 90.69 69.4 85.79 76.03 87.82 77.88"/></svg>