<svg id="Layer_1" data-name="Layer 1" xmlns="http://www.w3.org/2000/svg" xmlns:xlink="http://www.w3.org/1999/xlink" viewBox="0 0 100 100"><defs><style>.cls-1{fill:none;}.cls-2{fill:#381537;}.cls-3{clip-path:url(#clip-path);}.cls-4{fill:#5b255a;}.cls-5{fill:#4a1d47;}.cls-6{fill:#824b5d;}.cls-7{fill:#aa5779;}</style><clipPath id="clip-path"><polygon class="cls-1" points="2.4 34.74 11.28 69.56 46.48 83.29 60.39 99.67 97.61 73.89 81.38 22.11 48.02 0.33 20.75 25 20.02 12.28 2.4 34.74"/></clipPath></defs><polygon class="cls-2" points="2.4 34.74 11.28 69.56 60.39 99.67 76.94 93.83 97.61 73.89 81.38 22.11 48.02 0.33 20.75 25 20.02 12.28 2.4 34.74"/><g class="cls-3"><polygon class="cls-4" points="61.54 17.18 88.38 38.04 83.48 22.41 50.12 0.63 61.54 17.18"/><polygon class="cls-5" points="46.48 83.29 60.39 99.67 76.94 93.83 78.59 87.06 69.18 72.87 46.48 83.29"/><polygon class="cls-6" points="28.53 91.54 69.18 72.87 74.84 49.29 43.44 34.75 59.44 16.87 48.02 0.33 -12.19 -17.08 -42.54 38.06 -3.98 101.02 28.53 91.54"/><path class="cls-7" d="M-4.69,102.87-44.36,38.1l31.4-57L49-1,61.44,17,46,34.22,76.67,48.41,70.53,74,29,93.05ZM-40.72,38-3.27,99.17,28,90.07,67.83,71.76,73,50.18,40.85,35.29,57.44,16.75,47.05,1.68l-58.47-16.9Z"/></g><polygon class="cls-2" points="20.02 12.28 20.75 25 30.91 15.81 20.02 12.28"/></svg>