<svg xmlns="http://www.w3.org/2000/svg" width="165" height="36" fill="none">
  <head />
  <style class="darkreader darkreader--safari-fallback">
    html, body, body &gt; :not(iframe) {
        background-color: #181a1b !important;
        border-color: #776e62 !important;
        color: #e8e6e3 !important;
    }
  </style>
  <path
    d="M75.547 27.244v-7.781h-8.743v7.781H63.74V9.58h3.064v7.425h8.743V9.58h3.093v17.664h-3.093ZM93.885 27.247l-.613-2.124c-.67 1.104-2.648 2.324-5.6 2.324-3.065 0-5.516-1.353-5.516-4.335 0-2.593 1.866-3.782 5.933-4.167l4.487-.442c-.084-2.054-.837-3.242-3.71-3.242-2.647 0-3.37 1.049-3.37 2.815l-2.903.03c0-2.928 1.226-5.189 6.241-5.189 5.822 0 6.661 2.486 6.661 6.293v8.032l-1.61.005Zm-1.31-6.514-4.036.443c-2.478.277-3.315.8-3.315 1.905 0 1.297 1.115 2.043 3.204 2.043 2.618 0 4.152-1.49 4.152-3.947l-.004-.444ZM105.419 15.486c-2.981 0-3.572 1.637-3.572 3.92v7.838h-2.975V13.112h1.589l.703 1.96c.446-.938 1.81-2.152 4.596-2.152h.475v2.623c-.288 0-.565-.057-.816-.057ZM119.74 27.245l-.67-2.015c-.501.966-2.089 2.21-5.465 2.21-4.708 0-6.103-3.396-6.103-7.26 0-3.866 1.338-7.26 6.073-7.26 2.815 0 4.236.994 4.849 1.933V7.731h2.926v19.514h-1.61Zm-5.267-11.844c-3.258 0-3.927 1.932-3.927 4.775 0 2.842.67 4.83 3.901 4.83 3.315 0 4.011-1.931 4.011-4.83 0-2.73-.583-4.772-3.984-4.772l-.001-.003ZM135.204 27.245v-7.922c0-2.65-.447-3.919-3.485-3.919-3.007 0-3.65 1.242-3.65 3.92l-.054 7.921h-2.925V7.731h2.926v7.144c.556-1.015 1.809-1.96 4.541-1.96 4.653 0 5.6 2.623 5.6 6.68v7.645l-2.953.005ZM152.813 27.247l-.613-2.124c-.67 1.104-2.648 2.324-5.605 2.324-3.066 0-5.517-1.353-5.517-4.335 0-2.593 1.867-3.782 5.935-4.167l4.484-.442c-.078-2.054-.83-3.242-3.709-3.242-2.645 0-3.371 1.049-3.371 2.815l-2.903.03c0-2.928 1.227-5.189 6.241-5.189 5.823 0 6.662 2.486 6.662 6.293v8.032l-1.604.005Zm-1.309-6.514-4.037.443c-2.478.277-3.315.8-3.315 1.905 0 1.297 1.115 2.043 3.204 2.043 2.618 0 4.152-1.49 4.152-3.947l-.004-.444ZM161.256 15.486v7.7c0 1.326.557 1.933 3.65 1.796v2.37c-4.708.275-6.686-.83-6.686-4.17v-7.696h-2.036V13.72l2.034-.607V9.58h2.953v3.533h3.733v2.37l-3.648.003Z"
    fill="#ededed" />
  <path
    id="Path_2674"
    data-name="Path 2674"
    d="M46.312,140.263s-7.05-1.045-10.776-1.344c-3.578-.287-7.818-.453-12.366-.453s-8.788.166-12.365.453c-3.727.3-10.776,1.753-10.776,1.753v1.822c0,1.619,10.361,2.935,23.141,2.935s23.141-1.316,23.141-2.935Z"
    transform="translate(-0.023 -113.429)"
    fill="#ededed" />
  <path
    id="Path_2675"
    data-name="Path 2675"
    d="M24.808,14.764A21.214,21.214,0,0,0,10.714,34.747v3A51.343,51.343,0,0,1,19.9,36.419q-.031-.864-.032-1.742C19.871,26.794,21.774,19.7,24.808,14.764Z"
    transform="translate(-8.777 -12.095)"
    fill="#ededed" />
  <path
    id="Path_2676"
    data-name="Path 2676"
    d="M223.371,64.176A21.12,21.12,0,0,0,218.53,50.69a43.977,43.977,0,0,1,2.008,13.419q0,1.242-.064,2.455a26.02,26.02,0,0,1,2.863.607Z"
    transform="translate(-179.016 -41.524)"
    fill="#fff04d" />
  <path
    id="Path_2677"
    data-name="Path 2677"
    d="M223.371,64.176A21.12,21.12,0,0,0,218.53,50.69a43.977,43.977,0,0,1,2.008,13.419q0,1.242-.064,2.455a26.02,26.02,0,0,1,2.863.607Z"
    transform="translate(-179.016 -41.524)"
    fill="#ededed" />
  <g id="Group_222" data-name="Group 222" transform="translate(14.717 0)">
    <path
      id="Path_2679"
      data-name="Path 2679"
      d="M16.96,10.567l-1.344-8.4a1.619,1.619,0,0,0-1.138-1.3,21.3,21.3,0,0,0-12,0,1.619,1.619,0,0,0-1.137,1.3L0,10.567"
      transform="translate(0 0)"
      fill="#ededed" />
  </g>
  <path
    id="Path_2678"
    data-name="Path 2678"
    d="M89.775,15.706A21.228,21.228,0,0,0,66.293,9.211c-3.036,4.937-4.938,12.03-4.938,19.914q0,.878.032,1.742c3.158-.244,6.814-.395,10.729-.422H73.41a123.724,123.724,0,0,1,18.311,1.141q.062-1.215.064-2.455a43.976,43.976,0,0,0-2.01-13.424Z"
    transform="translate(-50.262 -6.541)"
    fill="#fff" />
  <path
    id="Path_2680"
    data-name="Path 2680"
    d="M23.148,131.211H21.854C9.675,131.3.006,132.575.006,134.141v2.269a.565.565,0,0,0,.08.383,5.41,5.41,0,0,1,2.085-.957,40.794,40.794,0,0,1,5.851-.98,3.918,3.918,0,0,1,3.07,1,8.258,8.258,0,0,0,5.577,2.167H29.624a8.259,8.259,0,0,0,5.577-2.167h0a3.916,3.916,0,0,1,3.071-1,40.78,40.78,0,0,1,5.85.98,4.892,4.892,0,0,1,1.978.865c.033.033.072.063.1.093a.569.569,0,0,0,.081-.385v-2.269C46.289,132.525,35.927,131.211,23.148,131.211Z"
    transform="translate(0 -107.486)"
    fill="#fff" />
  <path
    id="Path_2681"
    data-name="Path 2681"
    d="M132.869,93.942l-4.88,3v3.9Z"
    transform="translate(-104.847 -76.956)"
    fill="#6e6f70" />
  <path
    id="Path_2682"
    data-name="Path 2682"
    d="M105.906,100.848v-3.9l-4.88-3Z"
    transform="translate(-82.758 -76.956)"
    fill="#0a0a0a" />
  <path
    id="Path_2683"
    data-name="Path 2683"
    d="M101.025,48.323h0l4.88,2.822V40.429Z"
    transform="translate(-82.758 -33.119)"
    fill="#0a0a0a" />
  <path
    id="Path_2684"
    data-name="Path 2684"
    d="M132.869,48.318l-4.88-7.895h0V45.5h0v5.644l4.88-2.822h0Z"
    transform="translate(-104.847 -33.114)"
    fill="#6e6f70" />
  <defs>
    <linearGradient
      id="a"
      x1="10.561"
      y1="27.919"
      x2="10.561"
      y2="3.59"
      gradientUnits="userSpaceOnUse">
      <stop stop-color="#EDCF00" />
      <stop offset=".33" stop-color="#F0D500" />
      <stop offset=".77" stop-color="#F9E500" />
      <stop offset="1" stop-color="#FFF100" />
    </linearGradient>
    <linearGradient
      id="b"
      x1="46.089"
      y1="28.096"
      x2="46.089"
      y2="10.496"
      gradientUnits="userSpaceOnUse">
      <stop stop-color="#EDCF00" />
      <stop offset=".59" stop-color="#F7E100" />
      <stop offset="1" stop-color="#FFF100" />
    </linearGradient>
    <radialGradient
      id="c"
      cx="0"
      cy="0"
      r="1"
      gradientUnits="userSpaceOnUse"
      gradientTransform="matrix(18.5398 0 0 18.4136 3.701 44.539)">
      <stop stop-color="#FFF100" />
      <stop offset=".23" stop-color="#F9E500" />
      <stop offset=".67" stop-color="#F0D500" />
      <stop offset="1" stop-color="#EDCF00" />
    </radialGradient>
  </defs>
</svg>
