<svg id="hardhat-seeklogo.com" xmlns="http://www.w3.org/2000/svg" width="46.289" height="32" viewBox="0 0 46.289 32">
  <path id="Path_2674" data-name="Path 2674" d="M46.312,140.263s-7.05-1.045-10.776-1.344c-3.578-.287-7.818-.453-12.366-.453s-8.788.166-12.365.453c-3.727.3-10.776,1.753-10.776,1.753v1.822c0,1.619,10.361,2.935,23.141,2.935s23.141-1.316,23.141-2.935Z" transform="translate(-0.023 -113.429)" fill="#ededed"/>
  <path id="Path_2675" data-name="Path 2675" d="M24.808,14.764A21.214,21.214,0,0,0,10.714,34.747v3A51.343,51.343,0,0,1,19.9,36.419q-.031-.864-.032-1.742C19.871,26.794,21.774,19.7,24.808,14.764Z" transform="translate(-8.777 -12.095)" fill="#ededed"/>
  <path id="Path_2676" data-name="Path 2676" d="M223.371,64.176A21.12,21.12,0,0,0,218.53,50.69a43.977,43.977,0,0,1,2.008,13.419q0,1.242-.064,2.455a26.02,26.02,0,0,1,2.863.607Z" transform="translate(-179.016 -41.524)" fill="#fff04d"/>
  <path id="Path_2677" data-name="Path 2677" d="M223.371,64.176A21.12,21.12,0,0,0,218.53,50.69a43.977,43.977,0,0,1,2.008,13.419q0,1.242-.064,2.455a26.02,26.02,0,0,1,2.863.607Z" transform="translate(-179.016 -41.524)" fill="#ededed"/>
  <g id="Group_222" data-name="Group 222" transform="translate(14.717 0)">
    <path id="Path_2679" data-name="Path 2679" d="M16.96,10.567l-1.344-8.4a1.619,1.619,0,0,0-1.138-1.3,21.3,21.3,0,0,0-12,0,1.619,1.619,0,0,0-1.137,1.3L0,10.567" transform="translate(0 0)" fill="#ededed"/>
  </g>
  <path id="Path_2678" data-name="Path 2678" d="M89.775,15.706A21.228,21.228,0,0,0,66.293,9.211c-3.036,4.937-4.938,12.03-4.938,19.914q0,.878.032,1.742c3.158-.244,6.814-.395,10.729-.422H73.41a123.724,123.724,0,0,1,18.311,1.141q.062-1.215.064-2.455a43.976,43.976,0,0,0-2.01-13.424Z" transform="translate(-50.262 -6.541)" fill="#fff"/>
  <path id="Path_2680" data-name="Path 2680" d="M23.148,131.211H21.854C9.675,131.3.006,132.575.006,134.141v2.269a.565.565,0,0,0,.08.383,5.41,5.41,0,0,1,2.085-.957,40.794,40.794,0,0,1,5.851-.98,3.918,3.918,0,0,1,3.07,1,8.258,8.258,0,0,0,5.577,2.167H29.624a8.259,8.259,0,0,0,5.577-2.167h0a3.916,3.916,0,0,1,3.071-1,40.78,40.78,0,0,1,5.85.98,4.892,4.892,0,0,1,1.978.865c.033.033.072.063.1.093a.569.569,0,0,0,.081-.385v-2.269C46.289,132.525,35.927,131.211,23.148,131.211Z" transform="translate(0 -107.486)" fill="#fff"/>
  <path id="Path_2681" data-name="Path 2681" d="M132.869,93.942l-4.88,3v3.9Z" transform="translate(-104.847 -76.956)" fill="#6e6f70"/>
  <path id="Path_2682" data-name="Path 2682" d="M105.906,100.848v-3.9l-4.88-3Z" transform="translate(-82.758 -76.956)" fill="#0a0a0a"/>
  <path id="Path_2683" data-name="Path 2683" d="M101.025,48.323h0l4.88,2.822V40.429Z" transform="translate(-82.758 -33.119)" fill="#0a0a0a"/>
  <path id="Path_2684" data-name="Path 2684" d="M132.869,48.318l-4.88-7.895h0V45.5h0v5.644l4.88-2.822h0Z" transform="translate(-104.847 -33.114)" fill="#6e6f70"/>
</svg>
