<svg
  id="polygon-matic-logo"
  xmlns="http://www.w3.org/2000/svg"
  width="56"
  height="50.002"
  viewBox="0 0 56 50.002">
  <path
    id="Path_2816"
    data-name="Path 2816"
    d="M42.4,15.183a3.678,3.678,0,0,0-3.509,0l-8.188,4.9-5.556,3.116-8.042,4.9a3.678,3.678,0,0,1-3.509,0L7.311,24.233a3.627,3.627,0,0,1-1.755-3.116V13.7a3.671,3.671,0,0,1,1.755-3.116L13.6,6.874a3.678,3.678,0,0,1,3.509,0l6.287,3.858a3.627,3.627,0,0,1,1.755,3.116v4.9L30.7,15.479V10.435A3.671,3.671,0,0,0,28.95,7.319L17.253.345a3.678,3.678,0,0,0-3.509,0L1.755,7.467A3.271,3.271,0,0,0,0,10.435V24.382A3.671,3.671,0,0,0,1.755,27.5L13.6,34.471a3.678,3.678,0,0,0,3.509,0l8.042-4.748L30.7,26.459l8.042-4.748a3.678,3.678,0,0,1,3.509,0l6.287,3.709A3.627,3.627,0,0,1,50.3,28.536v7.419a3.671,3.671,0,0,1-1.755,3.116L42.4,42.78a3.678,3.678,0,0,1-3.509,0l-6.287-3.709a3.627,3.627,0,0,1-1.755-3.116V31.207L25.3,34.471v4.9a3.671,3.671,0,0,0,1.755,3.116l11.843,6.974a3.678,3.678,0,0,0,3.509,0l11.843-6.974A3.627,3.627,0,0,0,56,39.368v-14.1a3.671,3.671,0,0,0-1.755-3.116Z"
    transform="translate(0 0.1)"
    fill="#fff" />
</svg>
